{"title":"Formula.1.2016x15.Singapore.Teds.Qualifying.Notebook.SkyF1HD.SD","uid":15854355,"size":349033561,"categoryP":"video","categoryS":"other","magnet":"?xt=urn:btih:21e426189f5fc2b4a938969df539abee556b8274&amp;dn=Formula.1.2016x15.Singapore.Teds.Qualifying.Notebook.SkyF1HD.SD&amp;tr=udp%3A%2F%2Ftracker.leechers-paradise.org%3A6969&amp;tr=udp%3A%2F%2Fzer0day.ch%3A1337&amp;tr=udp%3A%2F%2Fopen.demonii.com%3A1337&amp;tr=udp%3A%2F%2Ftracker.coppersurfer.tk%3A6969&amp;tr=udp%3A%2F%2Fexodus.desync.com%3A6969","seeders":8,"leechers":5,"uploader":"GaYoonFan","files":1,"time":1474219810,"description":"Formula.1.2016x15.Singapore.Teds.Qualifying.Notebook.SkyF1HD.SD-smcgill1969:\r\n\r\nTed Kravitz gives his analysis on the day's qualifying at the 2016 Singapore Grand Prix at Marina Bay Street Circuit.\r\n\r\n Video\r\n ID : 1\r\n Format : AVC\r\n Format/Info : Advanced Video Codec\r\n Format profile :   \r\n Format settings, CABAC : Yes\r\n Format settings, ReFrames : 4 frames\r\n Codec ID : avc1\r\n Codec ID/Info : Advanced Video Coding\r\n Duration : 29mn 34s\r\n Bit rate : 1 437 Kbps\r\n Width : 640 pixels\r\n Height : 360 pixels\r\n Display aspect ratio : 16:9\r\n Frame rate mode : Constant\r\n Frame rate : 25.000 fps\r\n Color space : YUV\r\n Chroma subsampling : 4:2:0\r\n Bit depth : 8 bits\r\n Scan type : Progressive\r\n Bits/(Pixel*Frame) : 0.249\r\n Stream size : 304 MiB (91%)\r\n Writing library : x264 core 142 r2479 dd79a61\r\n Encoding settings : cabac=1 / ref=3 / deblock=1:0:0 / analyse=0x3:0x113 / me=hex / subme=7 / psy=1 / psy_rd=1.00:0.00 / mixed_ref=1 / me_range=16 / chroma_me=1 / trellis=1 / 8x8dct=1 / cqm=0 / deadzone=21,11 / fast_pskip=1 / chroma_qp_offset=-2 / threads=12 / lookahead_threads=2 / sliced_threads=0 / nr=0 / decimate=1 / interlaced=0 / bluray_compat=0 / constrained_intra=0 / bframes=3 / b_pyramid=2 / b_adapt=1 / b_bias=0 / direct=1 / weightb=1 / open_gop=0 / weightp=2 / keyint=250 / keyint_min=25 / scenecut=40 / intra_refresh=0 / rc_lookahead=40 / rc=crf / mbtree=1 / crf=20.0 / qcomp=0.60 / qpmin=0 / qpmax=69 / qpstep=4 / vbv_maxrate=25000 / vbv_bufsize=31250 / crf_max=0.0 / nal_hrd=none / filler=0 / ip_ratio=1.40 / aq=1:1.00\r\n Encoded date : UTC 2016-09-17 18:10:53\r\n Tagged date : UTC 2016-09-17 18:10:53\r\n Color range : Limited\r\n Color primaries : BT.709\r\n Transfer characteristics : BT.709\r\n Matrix coefficients : BT.709\r\n\r\n Audio\r\n ID : 2\r\n Format : AAC\r\n Format/Info : Advanced Audio Codec\r\n Format profile : LC\r\n Codec ID : 40\r\n Duration : 29mn 34s\r\n Bit rate mode : Variable\r\n Bit rate : 128 Kbps\r\n Channel(s) : 2 channels\r\n Channel positions : Front: L R\r\n Sampling rate : 44.1 KHz\r\n Frame rate : 43.066 fps (1024 spf)\r\n Compression mode : Lossy\r\n Stream size : 27.1 MiB (8%)\r\n Title : Eng / Eng\r\n Language : English\r\n Default : Yes\r\n Alternate group : 1\r\n Encoded date : UTC 2016-09-17 18:10:53\r\n Tagged date : UTC 2016-09-17 18:10:53","torrent":{"xt":"urn:btih:21e426189f5fc2b4a938969df539abee556b8274","amp;dn":"Formula.1.2016x15.Singapore.Teds.Qualifying.Notebook.SkyF1HD.SD","amp;tr":["udp%3A%2F%2Ftracker.leechers-paradise.org%3A6969","udp%3A%2F%2Fzer0day.ch%3A1337","udp%3A%2F%2Fopen.demonii.com%3A1337","udp%3A%2F%2Ftracker.coppersurfer.tk%3A6969","udp%3A%2F%2Fexodus.desync.com%3A6969"],"infoHash":"21e426189f5fc2b4a938969df539abee556b8274","infoHashBuffer":{"type":"Buffer","data":[33,228,38,24,159,95,194,180,169,56,150,157,245,57,171,238,85,107,130,116]},"announce":[],"urlList":[]}}